# ProBuilder 5.1.1
# https://unity3d.com/unity/features/worldbuilding/probuilder
# 1/26/2024 3:27:51 PM

mtllib ./Window.mtl
o Window

g Window
v -0.002498627 0.619097 0.4633369
v -0.002498627 0.619097 0.05667114
v -0.002498627 0.8673251 0.4633369
v -0.002498627 0.8673251 0.05667114
v 0.002500534 0.6209309 0.05666733
v 0.002500534 0.6209309 0.4633293
v 0.002500534 0.869097 0.05666733
v 0.002500534 0.869097 0.4633293
v 0.002500534 0.6209309 -0.4633331
v 0.002500534 0.6209309 -0.05666733
v 0.002500534 0.869097 -0.4633331
v 0.002500534 0.869097 -0.05666733
v -0.002498627 0.619097 -0.0566597
v -0.002498627 0.619097 -0.4633293
v -0.002498627 0.8673251 -0.0566597
v -0.002498627 0.8673251 -0.4633293
v 0.002500534 -0.8690696 -0.4633293
v 0.002500534 -0.8690696 -0.0566597
v 0.002500534 -0.6259029 -0.4633293
v 0.002500534 -0.6259029 -0.0566597
v -0.002498627 -0.869097 -0.0566597
v -0.002498627 -0.869097 -0.4633293
v -0.002498627 -0.6259303 -0.0566597
v -0.002498627 -0.6259303 -0.4633293
v 0.002500534 -0.8690696 0.05667114
v 0.002500534 -0.8690696 0.4633369
v 0.002500534 -0.6259029 0.05667114
v 0.002500534 -0.6259029 0.4633369
v -0.002498627 -0.869097 0.4633369
v -0.002498627 -0.869097 0.05667114
v -0.002498627 -0.6259303 0.4633369
v -0.002498627 -0.6259303 0.05667114
v 0.02249908 -0.5190697 -0.4933319
v 0.02249908 -0.5190697 -0.02666473
v 0.02249908 0.5191519 -0.4933319
v 0.02249908 0.5191519 -0.02666473
v -0.02249908 -0.5191243 -0.02666473
v -0.02249908 -0.5191243 -0.4933319
v -0.02249908 0.5190971 -0.02666473
v -0.02249908 0.5190971 -0.4933319
v 0.02249908 -0.5190697 0.02666855
v 0.02249908 -0.5190697 0.4933319
v 0.02249908 0.5191519 0.02666855
v 0.02249908 0.5191519 0.4933319
v -0.02249908 -0.5191243 0.4933319
v -0.02249908 -0.5191243 0.02666855
v -0.02249908 0.5190971 0.4933319
v -0.02249908 0.5190971 0.02666855

vt 0.4633369 0.619097
vt 0.05667114 0.619097
vt 0.4633369 0.8673251
vt 0.05667114 0.8673251
vt -0.05666733 0.6209309
vt -0.4633293 0.6209309
vt -0.05666733 0.869097
vt -0.4633293 0.869097
vt 0.4633331 0.6209309
vt 0.05666733 0.6209309
vt 0.4633331 0.869097
vt 0.05666733 0.869097
vt -0.0566597 0.619097
vt -0.4633293 0.619097
vt -0.0566597 0.8673251
vt -0.4633293 0.8673251
vt 0.4633293 -0.8690696
vt 0.0566597 -0.8690696
vt 0.4633293 -0.6259029
vt 0.0566597 -0.6259029
vt -0.0566597 -0.869097
vt -0.4633293 -0.869097
vt -0.0566597 -0.6259303
vt -0.4633293 -0.6259303
vt 0.4933319 -0.5190697
vt 0.02666473 -0.5190697
vt 0.4933319 0.5191519
vt 0.02666473 0.5191519
vt -0.02666473 -0.5191243
vt -0.4933319 -0.5191243
vt -0.02666473 0.5190971
vt -0.4933319 0.5190971

vn -1 0 0
vn 1 0 0

usemtl Glass
f 3/3/1 2/2/1 1/1/1
f 3/3/1 4/4/1 2/2/1
f 7/7/2 6/6/2 5/5/2
f 7/7/2 8/8/2 6/6/2
f 11/11/2 10/10/2 9/9/2
f 11/11/2 12/12/2 10/10/2
f 15/15/1 14/14/1 13/13/1
f 15/15/1 16/16/1 14/14/1
f 19/19/2 18/18/2 17/17/2
f 19/19/2 20/20/2 18/18/2
f 23/23/1 22/22/1 21/21/1
f 23/23/1 24/24/1 22/22/1
f 27/23/2 26/22/2 25/21/2
f 27/23/2 28/24/2 26/22/2
f 31/19/1 30/18/1 29/17/1
f 31/19/1 32/20/1 30/18/1
f 35/27/2 34/26/2 33/25/2
f 35/27/2 36/28/2 34/26/2
f 39/31/1 38/30/1 37/29/1
f 39/31/1 40/32/1 38/30/1
f 43/31/2 42/30/2 41/29/2
f 43/31/2 44/32/2 42/30/2
f 47/27/1 46/26/1 45/25/1
f 47/27/1 48/28/1 46/26/1

